<svg xmlns="http://www.w3.org/2000/svg" viewBox="0 0 760 560" fill="none"><circle cx="380" cy="280" r="200" stroke="#241B15" stroke-opacity=".5" stroke-width="1.3"></circle><circle cx="380" cy="280" r="166" stroke="#241B15" stroke-opacity=".12" stroke-width="1" stroke-dasharray="2.5 5"></circle><path d="M493.0 107.5 L497.6 118.2 L485.9 117.2" stroke="#241B15" stroke-width="1.3" stroke-linecap="round" stroke-linejoin="round"></path><path d="M579.0 334.1 L570.2 341.8 L567.6 330.4" stroke="#241B15" stroke-width="1.3" stroke-linecap="round" stroke-linejoin="round"></path><path d="M390.0 486.0 L380.0 480.0 L390.0 474.0" stroke="#241B15" stroke-width="1.3" stroke-linecap="round" stroke-linejoin="round"></path><path d="M187.2 353.2 L189.8 341.8 L198.6 349.5" stroke="#241B15" stroke-width="1.3" stroke-linecap="round" stroke-linejoin="round"></path><path d="M250.8 119.2 L262.4 118.2 L257.9 128.9" stroke="#241B15" stroke-width="1.3" stroke-linecap="round" stroke-linejoin="round"></path><circle cx="380.0" cy="80.0" r="7" fill="#EFE9DB" stroke="#241B15" stroke-width="1.3"></circle><text x="380.0" y="42.0" text-anchor="middle" font-family="ui-monospace, SFMono-Regular, Menlo, monospace" font-size="14" letter-spacing="2.5" fill="#241B15">DECIDE</text><text x="380.0" y="59.0" text-anchor="middle" font-family="ui-monospace, SFMono-Regular, Menlo, monospace" font-size="10" letter-spacing="1.5" fill="#8A7256">01</text><circle cx="570.2" cy="218.2" r="7" fill="#EFE9DB" stroke="#241B15" stroke-width="1.3"></circle><text x="602.5" y="211.7" text-anchor="start" font-family="ui-monospace, SFMono-Regular, Menlo, monospace" font-size="14" letter-spacing="2.5" fill="#241B15">CONNECT</text><text x="602.5" y="228.7" text-anchor="start" font-family="ui-monospace, SFMono-Regular, Menlo, monospace" font-size="10" letter-spacing="1.5" fill="#8A7256">02</text><circle cx="497.6" cy="441.8" r="7" fill="#EFE9DB" stroke="#241B15" stroke-width="1.3"></circle><text x="517.5" y="483.3" text-anchor="middle" font-family="ui-monospace, SFMono-Regular, Menlo, monospace" font-size="14" letter-spacing="2.5" fill="#241B15">ACT</text><text x="517.5" y="500.3" text-anchor="middle" font-family="ui-monospace, SFMono-Regular, Menlo, monospace" font-size="10" letter-spacing="1.5" fill="#8A7256">03</text><circle cx="262.4" cy="441.8" r="7" fill="#EFE9DB" stroke="#241B15" stroke-width="1.3"></circle><text x="242.5" y="483.3" text-anchor="middle" font-family="ui-monospace, SFMono-Regular, Menlo, monospace" font-size="14" letter-spacing="2.5" fill="#241B15">PRODUCE</text><text x="242.5" y="500.3" text-anchor="middle" font-family="ui-monospace, SFMono-Regular, Menlo, monospace" font-size="10" letter-spacing="1.5" fill="#8A7256">04</text><circle cx="189.8" cy="218.2" r="7" fill="#67473A" stroke="#241B15" stroke-width="1.3"></circle><text x="157.5" y="211.7" text-anchor="end" font-family="ui-monospace, SFMono-Regular, Menlo, monospace" font-size="14" letter-spacing="2.5" fill="#241B15">LEARN</text><text x="157.5" y="228.7" text-anchor="end" font-family="ui-monospace, SFMono-Regular, Menlo, monospace" font-size="10" letter-spacing="1.5" fill="#8A7256">05</text><g stroke="#67473A" stroke-width="1.2"><circle cx="380" cy="264" r="17" fill="none"></circle><circle cx="380" cy="264" r="4.5" fill="#67473A" stroke="none"></circle><line x1="380" y1="238" x2="380" y2="249"></line><line x1="380" y1="279" x2="380" y2="290"></line><line x1="354" y1="264" x2="365" y2="264"></line><line x1="395" y1="264" x2="406" y2="264"></line></g><text x="380" y="314" text-anchor="middle" font-family="ui-monospace, SFMono-Regular, Menlo, monospace" font-size="12" letter-spacing="3" fill="#241B15">ONE SYSTEM</text><text x="380" y="332" text-anchor="middle" font-family="ui-monospace, SFMono-Regular, Menlo, monospace" font-size="10" letter-spacing="2.5" fill="#8A7256">CLOSED LOOP</text></svg>